<svg width="20" height="20" viewBox="0 0 20 20" fill="none" xmlns="http://www.w3.org/2000/svg">
<path d="M13.3337 0.832031C13.5547 0.832031 13.7666 0.919829 13.9229 1.07611C14.0792 1.23239 14.167 1.44435 14.167 1.66536V2.49786L18.3337 2.4987V7.4987L16.6503 7.49786L18.9562 13.8279C19.1125 14.2511 19.1812 14.7017 19.1582 15.1523C19.1353 15.6029 19.0211 16.0441 18.8225 16.4493C18.624 16.8544 18.3453 17.2151 18.0033 17.5093C17.6613 17.8036 17.2631 18.0254 16.8329 18.1612C16.4026 18.2971 15.9493 18.3442 15.5003 18.2996C15.0513 18.2551 14.6161 18.1199 14.2209 17.9022C13.8257 17.6845 13.4788 17.3889 13.2013 17.0332C12.9237 16.6775 12.7212 16.2691 12.6062 15.8329H9.06199C8.87234 16.5642 8.43998 17.2095 7.83572 17.663C7.23146 18.1166 6.4911 18.3515 5.7359 18.3293C4.98069 18.3071 4.25539 18.0292 3.67878 17.541C3.10217 17.0528 2.70841 16.3832 2.56199 15.642C2.29218 15.5011 2.06613 15.289 1.90835 15.0286C1.75057 14.7683 1.6671 14.4698 1.66699 14.1654V9.9987H9.16699C9.16702 10.2028 9.24196 10.3998 9.37759 10.5523C9.51322 10.7049 9.70012 10.8023 9.90283 10.8262L10.0003 10.832H11.667C11.8711 10.832 12.0681 10.7571 12.2206 10.6214C12.3732 10.4858 12.4706 10.2989 12.4945 10.0962L12.5003 9.9987V2.4987H10.0003V0.832031H13.3337ZM5.83366 13.332C5.39163 13.332 4.96771 13.5076 4.65515 13.8202C4.34259 14.1327 4.16699 14.5567 4.16699 14.9987C4.16699 15.4407 4.34259 15.8646 4.65515 16.1772C4.96771 16.4898 5.39163 16.6654 5.83366 16.6654C6.27569 16.6654 6.69961 16.4898 7.01217 16.1772C7.32473 15.8646 7.50033 15.4407 7.50033 14.9987C7.50033 14.5567 7.32473 14.1327 7.01217 13.8202C6.69961 13.5076 6.27569 13.332 5.83366 13.332ZM15.8337 13.332C15.3916 13.332 14.9677 13.5076 14.6551 13.8202C14.3426 14.1327 14.167 14.5567 14.167 14.9987C14.167 15.4407 14.3426 15.8646 14.6551 16.1772C14.9677 16.4898 15.3916 16.6654 15.8337 16.6654C16.2757 16.6654 16.6996 16.4898 17.0122 16.1772C17.3247 15.8646 17.5003 15.4407 17.5003 14.9987C17.5003 14.5567 17.3247 14.1327 17.0122 13.8202C16.6996 13.5076 16.2757 13.332 15.8337 13.332ZM8.33366 2.4987C8.55467 2.4987 8.76663 2.5865 8.92291 2.74278C9.07919 2.89906 9.16699 3.11102 9.16699 3.33203V9.16537H1.66699V3.33203C1.66699 3.11102 1.75479 2.89906 1.91107 2.74278C2.06735 2.5865 2.27931 2.4987 2.50033 2.4987H8.33366ZM16.667 4.16536H14.167V5.83203H16.667V4.16536ZM7.50033 4.16536H3.33366V4.9987H7.50033V4.16536Z" fill="#50C154"/>
</svg>
