<svg width="14" height="14" viewBox="0 0 14 14" fill="none" xmlns="http://www.w3.org/2000/svg">
<path d="M11.667 4.08398H2.33366C1.68933 4.08398 1.16699 4.60632 1.16699 5.25065V11.084C1.16699 11.7283 1.68933 12.2507 2.33366 12.2507H11.667C12.3113 12.2507 12.8337 11.7283 12.8337 11.084V5.25065C12.8337 4.60632 12.3113 4.08398 11.667 4.08398Z" stroke="#FF0083" stroke-width="1.12728" stroke-linecap="round" stroke-linejoin="round"/>
<path d="M9.33366 12.25V2.91667C9.33366 2.60725 9.21074 2.3105 8.99195 2.09171C8.77316 1.87292 8.47641 1.75 8.16699 1.75H5.83366C5.52424 1.75 5.22749 1.87292 5.0087 2.09171C4.78991 2.3105 4.66699 2.60725 4.66699 2.91667V12.25" stroke="#FF0083" stroke-width="1.12728" stroke-linecap="round" stroke-linejoin="round"/>
</svg>
