<svg width="40" height="44" viewBox="0 0 40 44" fill="none" xmlns="http://www.w3.org/2000/svg">
<path d="M12.75 2.33398L9.25 7.00065V23.334C9.25 23.9528 9.49583 24.5463 9.93342 24.9839C10.371 25.4215 10.9645 25.6673 11.5833 25.6673H27.9167C28.5355 25.6673 29.129 25.4215 29.5666 24.9839C30.0042 24.5463 30.25 23.9528 30.25 23.334V7.00065L26.75 2.33398H12.75Z" fill="#FF0083"/>
<path d="M9.25 7H30.25" stroke="white" stroke-linecap="round" stroke-linejoin="round"/>
<path d="M24.4173 11.666C24.4173 12.9037 23.9257 14.0907 23.0505 14.9658C22.1753 15.841 20.9883 16.3327 19.7507 16.3327C18.513 16.3327 17.326 15.841 16.4508 14.9658C15.5756 14.0907 15.084 12.9037 15.084 11.666" stroke="white" stroke-linecap="round" stroke-linejoin="round"/>
<path d="M5.41802 42.144C2.87402 42.144 1.08602 40.344 1.08602 37.812C1.08602 35.256 2.86202 33.468 5.38202 33.468C7.91402 33.468 9.69002 35.268 9.69002 37.812C9.69002 40.344 7.91402 42.144 5.41802 42.144ZM5.41802 40.644C6.94202 40.644 8.01002 39.468 8.01002 37.812C8.01002 36.144 6.93002 34.968 5.38202 34.968C3.84602 34.968 2.76602 36.144 2.76602 37.812C2.76602 39.468 3.85802 40.644 5.41802 40.644ZM10.7953 42V36H12.3793V37.104C12.8713 36.348 13.6873 35.976 14.5033 35.976V37.512C13.3993 37.512 12.3793 37.908 12.3793 38.844V42H10.7953ZM17.7302 42.144C16.0742 42.144 15.0182 40.92 15.0182 39C15.0182 37.08 16.0742 35.856 17.7302 35.856C18.5222 35.856 19.1342 36.192 19.5302 36.804V33.6H21.1142V42H19.6142L19.5542 41.172C19.1582 41.796 18.5342 42.144 17.7302 42.144ZM18.1382 40.692C18.9062 40.692 19.4582 40.08 19.5302 39.18V38.82C19.4582 37.92 18.9062 37.32 18.1262 37.32C17.2742 37.32 16.6622 38.016 16.6622 39C16.6622 39.984 17.2862 40.692 18.1382 40.692ZM25.2869 42.144C23.5109 42.144 22.2629 40.848 22.2629 39C22.2629 37.152 23.5469 35.856 25.3589 35.856C26.9189 35.856 28.2629 37.14 28.2629 39.384H23.8829C24.0149 40.284 24.6509 40.764 25.4429 40.764C26.0909 40.764 26.4869 40.44 26.7269 39.984L28.1189 40.536C27.6149 41.544 26.6789 42.144 25.2869 42.144ZM25.2989 37.188C24.6029 37.188 24.1469 37.524 23.9549 38.208H26.5949C26.3789 37.488 25.9109 37.188 25.2989 37.188ZM29.2875 42V36H30.8715V37.104C31.3635 36.348 32.1795 35.976 32.9955 35.976V37.512C31.8915 37.512 30.8715 37.908 30.8715 38.844V42H29.2875ZM36.0784 42.144C34.8904 42.144 33.9424 41.592 33.5344 40.668L34.8184 40.08C35.0584 40.476 35.5024 40.788 36.0664 40.788C36.6184 40.788 36.9544 40.632 36.9544 40.308C36.9544 39.996 36.6784 39.864 36.2584 39.756L35.6944 39.612C34.5424 39.312 33.8464 38.616 33.8464 37.764C33.8464 36.552 34.6624 35.856 36.1264 35.856C37.2304 35.856 38.1904 36.396 38.4664 37.176L37.2184 37.74C37.0984 37.404 36.5824 37.2 36.1144 37.2C35.6584 37.2 35.3824 37.404 35.3824 37.74C35.3824 37.956 35.6344 38.112 36.0784 38.22L36.8344 38.412C38.0104 38.7 38.4784 39.576 38.4784 40.332C38.4784 41.424 37.4704 42.144 36.0784 42.144Z" fill="#FF0083"/>
</svg>
