<svg width="38" height="42" viewBox="0 0 38 42" fill="none" xmlns="http://www.w3.org/2000/svg">
<path d="M8.65625 10.5931L19.25 2.35352L29.8438 10.5931V23.541C29.8438 24.1654 29.5957 24.7642 29.1542 25.2057C28.7127 25.6472 28.1139 25.8952 27.4896 25.8952H11.0104C10.3861 25.8952 9.78726 25.6472 9.34577 25.2057C8.90428 24.7642 8.65625 24.1654 8.65625 23.541V10.5931Z" fill="#FF0083"/>
<path d="M17.1136 13.132C17.3945 12.9066 18.7254 13.0134 18.7857 13.132C18.8461 13.2507 18.5588 14.1407 18.5588 14.1407C18.8534 13.7847 19.1838 13.5078 19.5501 13.31C19.9244 13.1122 20.3344 13.0134 20.7803 13.0134C21.2342 13.0134 21.6204 13.1281 21.9389 13.3575C22.2653 13.579 22.5162 13.8797 22.6913 14.2594C22.8665 14.6391 22.9541 15.0703 22.9541 15.5529C22.9541 16.0751 22.8625 16.5735 22.6794 17.0482C22.4962 17.5149 22.2494 17.9342 21.9389 18.3061C21.6283 18.67 21.27 18.9588 20.8639 19.1724C20.4578 19.3781 20.0358 19.4809 19.5979 19.4809C19.16 19.4809 18.7937 19.382 18.4991 19.1842C18.2124 18.9786 18.0173 18.7017 17.9138 18.3535C17.9138 18.3535 17.2534 21.744 17.1494 21.8899C17.0455 22.0359 15.3076 22.0783 15.2384 21.8899C15.1692 21.7016 16.8327 13.3575 17.1136 13.132ZM19.2874 17.8789C19.5023 17.8789 19.7094 17.8235 19.9084 17.7127C20.1075 17.5941 20.2867 17.4398 20.4459 17.2499C20.6052 17.06 20.7286 16.8464 20.8162 16.6091C20.9117 16.3638 20.9595 16.1146 20.9595 15.8615C20.9595 15.6241 20.9157 15.4145 20.8281 15.2325C20.7405 15.0426 20.6171 14.8963 20.4578 14.7934C20.2986 14.6827 20.1075 14.6273 19.8845 14.6273C19.7731 14.6273 19.6536 14.6471 19.5262 14.6866C19.4068 14.7262 19.2874 14.7855 19.1679 14.8646C19.0485 14.9358 18.933 15.0229 18.8216 15.1257C18.718 15.2285 18.523 15.4817 18.523 15.4817L18.2483 16.7634C18.2881 16.977 18.3518 17.1668 18.4394 17.333C18.5349 17.4991 18.6543 17.6336 18.7977 17.7365C18.949 17.8314 19.1122 17.8789 19.2874 17.8789Z" fill="white"/>
<path d="M2.53658 32.7926C2.82264 32.563 4.17783 32.6718 4.23927 32.7926C4.30072 32.9135 4.00819 33.8198 4.00819 33.8198C4.30819 33.4573 4.64468 33.1753 5.01765 32.9739C5.39872 32.7725 5.81629 32.6718 6.27034 32.6718C6.7325 32.6718 7.12574 32.7886 7.45006 33.0222C7.78249 33.2478 8.0379 33.5539 8.21627 33.9406C8.39465 34.3273 8.48384 34.7664 8.48384 35.2578C8.48384 35.7895 8.3906 36.297 8.20411 36.7804C8.01763 37.2557 7.76628 37.6826 7.45006 38.0613C7.13385 38.4319 6.76899 38.7259 6.35548 38.9434C5.94197 39.1529 5.51224 39.2576 5.0663 39.2576C4.62035 39.2576 4.24738 39.1569 3.94738 38.9555C3.65549 38.746 3.45685 38.4641 3.35144 38.1096C3.35144 38.1096 2.67892 41.5621 2.57307 41.7106C2.46722 41.8592 0.697608 41.9025 0.627139 41.7106C0.55667 41.5188 2.25053 33.0222 2.53658 32.7926ZM4.75008 37.6263C4.969 37.6263 5.17981 37.5699 5.38251 37.4571C5.58521 37.3362 5.76764 37.1791 5.9298 36.9858C6.09197 36.7925 6.21764 36.5749 6.30683 36.3333C6.40412 36.0835 6.45277 35.8298 6.45277 35.572C6.45277 35.3303 6.40818 35.1168 6.31899 34.9315C6.2298 34.7382 6.10413 34.5891 5.94197 34.4844C5.77981 34.3716 5.58521 34.3152 5.35819 34.3152C5.24467 34.3152 5.12305 34.3354 4.99332 34.3757C4.8717 34.4159 4.75008 34.4764 4.62846 34.5569C4.50684 34.6294 4.38927 34.718 4.27576 34.8228C4.17036 34.9275 3.97171 35.1853 3.97171 35.1853L3.69198 36.4904C3.73252 36.7079 3.79739 36.9012 3.88657 37.0704C3.98387 37.2396 4.10549 37.3765 4.25144 37.4812C4.40549 37.5779 4.5717 37.6263 4.75008 37.6263Z" fill="#FF0083"/>
<path d="M9.78072 39.2521C9.32667 39.2521 8.97802 39.1514 8.73478 38.95C8.49965 38.7406 8.38208 38.4465 8.38208 38.0679C8.38208 37.9873 8.38613 37.9068 8.39424 37.8262C8.40235 37.7376 8.41857 37.649 8.44289 37.5604C8.44289 37.5604 9.70436 30.3903 9.98747 30.3221C10.3039 30.2458 11.5458 30.208 11.8027 30.3221C12.0068 30.4126 10.5226 36.8837 10.5226 36.8837C10.5145 36.924 10.5064 36.9683 10.4983 37.0166C10.4983 37.0569 10.4983 37.0972 10.4983 37.1374C10.4983 37.4516 10.6523 37.6087 10.9604 37.6087C11.0496 37.6087 11.151 37.5966 11.2645 37.5725C11.3861 37.5402 11.5458 37.4413 11.6743 37.5265C11.8212 37.6238 11.605 38.8632 11.5442 38.8896C11.4834 38.9161 10.9929 39.091 10.6685 39.1555C10.3442 39.2199 10.0483 39.2521 9.78072 39.2521Z" fill="#FF0083"/>
<path d="M14.186 39.244C13.7157 39.244 13.3103 39.1352 12.9698 38.9177C12.6373 38.6922 12.3779 38.386 12.1914 37.9993C12.013 37.6046 11.9238 37.1615 11.9238 36.6701C11.9238 36.1303 12.0171 35.6188 12.2036 35.1354C12.39 34.6521 12.6454 34.2291 12.9698 33.8666C13.2941 33.496 13.663 33.202 14.0765 32.9845C14.4981 32.767 14.94 32.6582 15.4022 32.6582C15.8157 32.6582 16.1684 32.767 16.4603 32.9845C16.7603 33.1939 16.963 33.4719 17.0684 33.8183C17.0684 33.8183 17.2145 32.911 17.2873 32.8153C17.3601 32.7196 18.9417 32.5706 19.2454 32.8153C19.5105 33.0289 18.3454 36.948 18.3454 36.948C18.3373 36.9964 18.3292 37.0407 18.3211 37.081C18.3211 37.1212 18.3211 37.1615 18.3211 37.2018C18.3211 37.3871 18.437 37.3071 18.6251 37.4918C18.8133 37.6765 18.5135 39.0818 18.2846 39.1232C18.0557 39.1645 17.9481 39.1795 17.8103 39.1957C17.6724 39.2118 17.5549 39.2198 17.4576 39.2198C17.1414 39.2198 16.89 39.1594 16.7035 39.0386C16.517 38.9097 16.4238 38.7002 16.4238 38.4102C16.4238 38.378 16.4238 38.3457 16.4238 38.3135C16.4238 38.2813 16.4278 38.245 16.436 38.2048C16.4441 38.1645 16.4522 38.1202 16.4603 38.0718C16.1603 38.4666 15.8076 38.7606 15.4022 38.954C15.0049 39.1473 14.5995 39.244 14.186 39.244ZM15.0616 37.6126C15.1833 37.6126 15.3049 37.5925 15.4265 37.5522C15.5562 37.5039 15.6819 37.4435 15.8035 37.371C15.9251 37.2985 16.0427 37.2058 16.1562 37.093C16.2697 36.9803 16.3711 36.8594 16.4603 36.7305L16.74 35.4013C16.7157 35.1838 16.6508 34.9944 16.5454 34.8333C16.4481 34.6722 16.3224 34.5433 16.1684 34.4466C16.0143 34.35 15.8522 34.3016 15.6819 34.3016C15.4549 34.3016 15.24 34.358 15.0373 34.4708C14.8346 34.5836 14.6522 34.7367 14.49 34.93C14.336 35.1233 14.2103 35.3449 14.113 35.5946C14.0238 35.8363 13.9792 36.0901 13.9792 36.3559C13.9792 36.5976 14.0198 36.8151 14.1008 37.0084C14.19 37.1937 14.3157 37.3428 14.4779 37.4556C14.64 37.5603 14.8346 37.6126 15.0616 37.6126Z" fill="#FF0083"/>
<path d="M19.0477 37.9191C19.1553 37.5899 22.8475 34.209 22.8423 34.0764C22.8332 33.8455 20.3296 34.271 20.3296 34.0764C20.3296 33.5404 20.378 33.2132 20.6215 32.735C20.7494 32.484 25.4444 32.3989 25.4985 32.735C25.5403 32.9946 25.3872 33.454 25.2431 33.8951C25.023 34.5689 21.215 37.5827 21.4486 37.7378C21.6821 37.893 24.466 37.5453 24.5134 37.7378C24.5608 37.9303 24.3269 38.8664 24.2215 39.0791C24.1372 39.2493 19.1073 39.377 19.1013 39.0791C19.092 38.6155 18.9037 38.3602 19.0477 37.9191Z" fill="#FF0083"/>
<path d="M24.8812 37.9191C24.9888 37.5899 28.681 34.209 28.6758 34.0764C28.6667 33.8455 26.1631 34.271 26.1631 34.0764C26.1631 33.5404 26.2115 33.2132 26.455 32.735C26.5829 32.484 31.2779 32.3989 31.332 32.735C31.3738 32.9946 31.2207 33.454 31.0766 33.8951C30.8565 34.5689 27.0485 37.5827 27.282 37.7378C27.5156 37.893 30.2995 37.5453 30.3469 37.7378C30.3943 37.9303 30.1604 38.8664 30.055 39.0791C29.9707 39.2493 24.9407 39.377 24.9348 39.0791C24.9255 38.6155 24.7371 38.3602 24.8812 37.9191Z" fill="#FF0083"/>
<path d="M32.7763 39.244C32.306 39.244 31.9006 39.1352 31.5601 38.9177C31.2277 38.6922 30.9682 38.386 30.7817 37.9993C30.6033 37.6046 30.5142 37.1615 30.5142 36.6701C30.5142 36.1303 30.6074 35.6188 30.7939 35.1354C30.9804 34.6521 31.2358 34.2291 31.5601 33.8666C31.8844 33.496 32.2533 33.202 32.6668 32.9845C33.0885 32.767 33.5304 32.6582 33.9925 32.6582C34.406 32.6582 34.7587 32.767 35.0506 32.9845C35.3506 33.1939 35.5533 33.4719 35.6587 33.8183C35.6587 33.8183 35.8048 32.911 35.8776 32.8153C35.9505 32.7196 37.5321 32.5706 37.8357 32.8153C38.1008 33.0289 36.9357 36.948 36.9357 36.948C36.9276 36.9964 36.9195 37.0407 36.9114 37.081C36.9114 37.1212 36.9114 37.1615 36.9114 37.2018C36.9114 37.3871 37.0273 37.3071 37.2155 37.4918C37.4036 37.6765 37.1038 39.0818 36.8749 39.1232C36.646 39.1645 36.5384 39.1795 36.4006 39.1957C36.2628 39.2118 36.1452 39.2198 36.0479 39.2198C35.7317 39.2198 35.4803 39.1594 35.2939 39.0386C35.1074 38.9097 35.0141 38.7002 35.0141 38.4102C35.0141 38.378 35.0141 38.3457 35.0141 38.3135C35.0141 38.2813 35.0182 38.245 35.0263 38.2048C35.0344 38.1645 35.0425 38.1202 35.0506 38.0718C34.7506 38.4666 34.3979 38.7606 33.9925 38.954C33.5952 39.1473 33.1898 39.244 32.7763 39.244ZM33.652 37.6126C33.7736 37.6126 33.8952 37.5925 34.0168 37.5522C34.1466 37.5039 34.2722 37.4435 34.3939 37.371C34.5155 37.2985 34.633 37.2058 34.7466 37.093C34.8601 36.9803 34.9614 36.8594 35.0506 36.7305L35.3303 35.4013C35.306 35.1838 35.2411 34.9944 35.1357 34.8333C35.0384 34.6722 34.9128 34.5433 34.7587 34.4466C34.6047 34.35 34.4425 34.3016 34.2722 34.3016C34.0452 34.3016 33.8304 34.358 33.6276 34.4708C33.4249 34.5836 33.2425 34.7367 33.0804 34.93C32.9263 35.1233 32.8006 35.3449 32.7033 35.5946C32.6141 35.8363 32.5695 36.0901 32.5695 36.3559C32.5695 36.5976 32.6101 36.8151 32.6912 37.0084C32.7804 37.1937 32.906 37.3428 33.0682 37.4556C33.2304 37.5603 33.4249 37.6126 33.652 37.6126Z" fill="#FF0083"/>
</svg>
