<svg width="32" height="32" viewBox="0 0 32 32" fill="none" xmlns="http://www.w3.org/2000/svg">
<rect width="32" height="32" rx="16" fill="#ECECEC"/>
<path d="M20 13.334C21.1046 13.334 22 12.4386 22 11.334C22 10.2294 21.1046 9.33398 20 9.33398C18.8954 9.33398 18 10.2294 18 11.334C18 12.4386 18.8954 13.334 20 13.334Z" stroke="#7B7B7B" stroke-width="1.33333" stroke-linecap="round" stroke-linejoin="round"/>
<path d="M12 18C13.1046 18 14 17.1046 14 16C14 14.8954 13.1046 14 12 14C10.8954 14 10 14.8954 10 16C10 17.1046 10.8954 18 12 18Z" stroke="#7B7B7B" stroke-width="1.33333" stroke-linecap="round" stroke-linejoin="round"/>
<path d="M20 22.666C21.1046 22.666 22 21.7706 22 20.666C22 19.5614 21.1046 18.666 20 18.666C18.8954 18.666 18 19.5614 18 20.666C18 21.7706 18.8954 22.666 20 22.666Z" stroke="#7B7B7B" stroke-width="1.33333" stroke-linecap="round" stroke-linejoin="round"/>
<path d="M13.7266 17.0059L18.2799 19.6592" stroke="#7B7B7B" stroke-width="1.33333" stroke-linecap="round" stroke-linejoin="round"/>
<path d="M18.2732 12.3398L13.7266 14.9932" stroke="#7B7B7B" stroke-width="1.33333" stroke-linecap="round" stroke-linejoin="round"/>
</svg>
