<svg width="32" height="32" viewBox="0 0 32 32" fill="none" xmlns="http://www.w3.org/2000/svg">
<rect width="32" height="32" rx="16" fill="#ECECEC"/>
<g clip-path="url(#clip0_1515_7000)">
<path d="M16 18C17.1046 18 18 17.1046 18 16C18 14.8954 17.1046 14 16 14C14.8954 14 14 14.8954 14 16C14 17.1046 14.8954 18 16 18Z" stroke="#7B7B7B" stroke-width="1.33333" stroke-linecap="round" stroke-linejoin="round"/>
<path d="M20.9337 17.9993C20.8449 18.2004 20.8184 18.4235 20.8577 18.6397C20.8969 18.856 21 19.0556 21.1537 19.2127L21.1937 19.2527C21.3176 19.3765 21.416 19.5236 21.4831 19.6854C21.5502 19.8473 21.5847 20.0208 21.5847 20.196C21.5847 20.3712 21.5502 20.5447 21.4831 20.7066C21.416 20.8685 21.3176 21.0155 21.1937 21.1393C21.0698 21.2633 20.9228 21.3617 20.7609 21.4288C20.599 21.4959 20.4255 21.5304 20.2503 21.5304C20.0751 21.5304 19.9016 21.4959 19.7397 21.4288C19.5779 21.3617 19.4308 21.2633 19.307 21.1393L19.267 21.0993C19.1099 20.9457 18.9103 20.8426 18.6941 20.8033C18.4778 20.7641 18.2547 20.7906 18.0537 20.8793C17.8565 20.9639 17.6883 21.1042 17.5699 21.283C17.4514 21.4619 17.3878 21.6715 17.387 21.886V21.9993C17.387 22.353 17.2465 22.6921 16.9965 22.9422C16.7464 23.1922 16.4073 23.3327 16.0537 23.3327C15.7 23.3327 15.3609 23.1922 15.1109 22.9422C14.8608 22.6921 14.7203 22.353 14.7203 21.9993V21.9393C14.7152 21.7187 14.6437 21.5047 14.5153 21.3251C14.3869 21.1456 14.2075 21.0089 14.0003 20.9327C13.7992 20.8439 13.5762 20.8175 13.3599 20.8567C13.1437 20.8959 12.9441 20.999 12.787 21.1527L12.747 21.1927C12.6232 21.3167 12.4761 21.415 12.3142 21.4821C12.1524 21.5492 11.9789 21.5837 11.8037 21.5837C11.6284 21.5837 11.4549 21.5492 11.2931 21.4821C11.1312 21.415 10.9842 21.3167 10.8603 21.1927C10.7364 21.0689 10.638 20.9218 10.5709 20.7599C10.5038 20.5981 10.4693 20.4246 10.4693 20.2493C10.4693 20.0741 10.5038 19.9006 10.5709 19.7388C10.638 19.5769 10.7364 19.4298 10.8603 19.306L10.9003 19.266C11.054 19.1089 11.1571 18.9093 11.1963 18.6931C11.2355 18.4768 11.2091 18.2538 11.1203 18.0527C11.0358 17.8555 10.8955 17.6873 10.7166 17.5689C10.5378 17.4504 10.3282 17.3869 10.1137 17.386H10.0003C9.6467 17.386 9.30757 17.2455 9.05752 16.9955C8.80747 16.7454 8.66699 16.4063 8.66699 16.0527C8.66699 15.6991 8.80747 15.3599 9.05752 15.1099C9.30757 14.8598 9.6467 14.7193 10.0003 14.7193H10.0603C10.281 14.7142 10.495 14.6428 10.6745 14.5144C10.8541 14.386 10.9908 14.2065 11.067 13.9993C11.1557 13.7983 11.1822 13.5752 11.143 13.359C11.1038 13.1427 11.0007 12.9431 10.847 12.786L10.807 12.746C10.683 12.6222 10.5847 12.4751 10.5176 12.3133C10.4505 12.1514 10.4159 11.9779 10.4159 11.8027C10.4159 11.6275 10.4505 11.454 10.5176 11.2921C10.5847 11.1302 10.683 10.9832 10.807 10.8593C10.9308 10.7354 11.0779 10.637 11.2397 10.5699C11.4016 10.5028 11.5751 10.4683 11.7503 10.4683C11.9255 10.4683 12.099 10.5028 12.2609 10.5699C12.4228 10.637 12.5698 10.7354 12.6937 10.8593L12.7337 10.8993C12.8908 11.053 13.0903 11.1561 13.3066 11.1954C13.5229 11.2346 13.7459 11.2081 13.947 11.1193H14.0003C14.1975 11.0348 14.3657 10.8945 14.4841 10.7157C14.6026 10.5368 14.6661 10.3272 14.667 10.1127V9.99935C14.667 9.64573 14.8075 9.30659 15.0575 9.05654C15.3076 8.80649 15.6467 8.66602 16.0003 8.66602C16.3539 8.66602 16.6931 8.80649 16.9431 9.05654C17.1932 9.30659 17.3337 9.64573 17.3337 9.99935V10.0593C17.3345 10.2739 17.3981 10.4835 17.5165 10.6623C17.635 10.8412 17.8031 10.9815 18.0003 11.066C18.2014 11.1548 18.4245 11.1812 18.6407 11.142C18.857 11.1028 19.0565 10.9997 19.2137 10.846L19.2537 10.806C19.3775 10.682 19.5245 10.5837 19.6864 10.5166C19.8483 10.4495 20.0218 10.415 20.197 10.415C20.3722 10.415 20.5457 10.4495 20.7076 10.5166C20.8694 10.5837 21.0165 10.682 21.1403 10.806C21.2643 10.9298 21.3626 11.0769 21.4297 11.2388C21.4968 11.4006 21.5314 11.5741 21.5314 11.7493C21.5314 11.9246 21.4968 12.0981 21.4297 12.2599C21.3626 12.4218 21.2643 12.5689 21.1403 12.6927L21.1003 12.7327C20.9466 12.8898 20.8435 13.0894 20.8043 13.3056C20.7651 13.5219 20.7916 13.7449 20.8803 13.946V13.9993C20.9648 14.1965 21.1052 14.3647 21.284 14.4831C21.4629 14.6016 21.6725 14.6652 21.887 14.666H22.0003C22.3539 14.666 22.6931 14.8065 22.9431 15.0565C23.1932 15.3066 23.3337 15.6457 23.3337 15.9993C23.3337 16.353 23.1932 16.6921 22.9431 16.9422C22.6931 17.1922 22.3539 17.3327 22.0003 17.3327H21.9403C21.7258 17.3335 21.5162 17.3971 21.3373 17.5156C21.1585 17.634 21.0182 17.8022 20.9337 17.9993Z" stroke="#7B7B7B" stroke-width="1.33333" stroke-linecap="round" stroke-linejoin="round"/>
</g>
<defs>
<clipPath id="clip0_1515_7000">
<rect width="16" height="16" fill="white" transform="translate(8 8)"/>
</clipPath>
</defs>
</svg>
