<svg width="12" height="15" viewBox="0 0 12 15" fill="none" xmlns="http://www.w3.org/2000/svg">
<path d="M11.5 6.25C11.5 10.3333 6.25 13.8333 6.25 13.8333C6.25 13.8333 1 10.3333 1 6.25C1 4.85761 1.55312 3.52226 2.53769 2.53769C3.52226 1.55312 4.85761 1 6.25 1C7.64239 1 8.97774 1.55312 9.96231 2.53769C10.9469 3.52226 11.5 4.85761 11.5 6.25Z" stroke="#FF0083" stroke-linecap="round" stroke-linejoin="round"/>
<path d="M6.25 8C7.2165 8 8 7.2165 8 6.25C8 5.2835 7.2165 4.5 6.25 4.5C5.2835 4.5 4.5 5.2835 4.5 6.25C4.5 7.2165 5.2835 8 6.25 8Z" stroke="#FF0083" stroke-linecap="round" stroke-linejoin="round"/>
</svg>
