<svg width="15" height="14" viewBox="0 0 15 14" fill="none" xmlns="http://www.w3.org/2000/svg">
<g clip-path="url(#clip0_1333_5669)">
<path d="M12.5127 4.08398H3.17936C2.53503 4.08398 2.0127 4.60632 2.0127 5.25065V11.084C2.0127 11.7283 2.53503 12.2507 3.17936 12.2507H12.5127C13.157 12.2507 13.6794 11.7283 13.6794 11.084V5.25065C13.6794 4.60632 13.157 4.08398 12.5127 4.08398Z" stroke="#4A4A4A" stroke-width="1.12728" stroke-linecap="round" stroke-linejoin="round"/>
<path d="M10.1794 12.25V2.91667C10.1794 2.60725 10.0564 2.3105 9.83765 2.09171C9.61886 1.87292 9.32211 1.75 9.0127 1.75H6.67936C6.36994 1.75 6.0732 1.87292 5.8544 2.09171C5.63561 2.3105 5.5127 2.60725 5.5127 2.91667V12.25" stroke="#4A4A4A" stroke-width="1.12728" stroke-linecap="round" stroke-linejoin="round"/>
</g>
<defs>
<clipPath id="clip0_1333_5669">
<rect width="14" height="14" fill="white" transform="translate(0.845703)"/>
</clipPath>
</defs>
</svg>
