<svg width="237" height="58" viewBox="0 0 237 58" fill="none" xmlns="http://www.w3.org/2000/svg">
<path d="M2.76 47V14.8H16.1C18.5227 14.8 20.6693 15.2753 22.54 16.226C24.4107 17.1767 25.8673 18.4953 26.91 20.182C27.9833 21.8687 28.52 23.816 28.52 26.024C28.52 28.232 27.9833 30.1947 26.91 31.912C25.8673 33.5987 24.4107 34.9327 22.54 35.914C20.6693 36.8647 18.5227 37.34 16.1 37.34H11.27V47H2.76ZM11.27 29.52H15.87C17.0353 29.52 17.9707 29.198 18.676 28.554C19.412 27.91 19.78 27.0667 19.78 26.024C19.78 25.012 19.412 24.184 18.676 23.54C17.9707 22.896 17.0353 22.574 15.87 22.574H11.27V29.52ZM30.4281 47V14.8H38.7081V47H30.4281ZM44.8261 47V35.224H53.1061V47H44.8261ZM44.8261 35.224C44.8261 34.3347 44.7188 33.614 44.5041 33.062C44.3201 32.4793 44.0288 32.0347 43.6301 31.728C43.2621 31.4213 42.7868 31.2527 42.2041 31.222C41.0388 31.1607 40.1648 31.4213 39.5821 32.004C38.9995 32.5867 38.7081 33.5067 38.7081 34.764H36.4541C36.4541 32.3413 36.8221 30.2867 37.5581 28.6C38.2941 26.9133 39.2908 25.6407 40.5481 24.782C41.8055 23.8927 43.2315 23.448 44.8261 23.448C46.6968 23.448 48.2455 23.8313 49.4721 24.598C50.6988 25.334 51.6035 26.4687 52.1861 28.002C52.7995 29.5353 53.1061 31.4827 53.1061 33.844V35.224H44.8261ZM69.9678 47L69.7378 41.71V35.73C69.7378 34.6567 69.6765 33.6907 69.5538 32.832C69.4312 31.9733 69.1245 31.2987 68.6338 30.808C68.1432 30.3173 67.3458 30.072 66.2418 30.072C65.4752 30.072 64.8465 30.256 64.3558 30.624C63.8652 30.992 63.4512 31.4213 63.1138 31.912L55.8918 29.612C56.5358 28.3547 57.3332 27.266 58.2838 26.346C59.2652 25.426 60.3998 24.7207 61.6878 24.23C63.0065 23.7087 64.4632 23.448 66.0578 23.448C68.5112 23.448 70.6118 23.8927 72.3598 24.782C74.1078 25.6713 75.4418 26.9133 76.3618 28.508C77.2818 30.1027 77.7418 31.958 77.7418 34.074V47H69.9678ZM63.8498 47.552C61.1818 47.552 59.0965 46.954 57.5938 45.758C56.1218 44.5313 55.3858 42.7833 55.3858 40.514C55.3858 38.122 56.1218 36.3587 57.5938 35.224C59.0965 34.0587 61.1818 33.476 63.8498 33.476H70.6118V38.214H67.1158C66.0425 38.214 65.2145 38.398 64.6318 38.766C64.0492 39.134 63.7578 39.6553 63.7578 40.33C63.7578 40.79 63.9572 41.1427 64.3558 41.388C64.7545 41.6333 65.3065 41.756 66.0118 41.756C66.7785 41.756 67.4378 41.618 67.9898 41.342C68.5418 41.0353 68.9712 40.6213 69.2778 40.1C69.5845 39.548 69.7378 38.9193 69.7378 38.214H71.8998C71.8998 41.1887 71.1945 43.4887 69.7838 45.114C68.3732 46.7393 66.3952 47.552 63.8498 47.552ZM87.5113 35.27C87.5113 32.786 88.002 30.7007 88.9833 29.014C89.9953 27.3273 91.268 26.0547 92.8013 25.196C94.3346 24.3373 95.9293 23.908 97.5853 23.908V32.004C96.144 32.004 94.7946 32.142 93.5373 32.418C92.3106 32.6633 91.314 33.0467 90.5473 33.568C89.8113 34.0893 89.4433 34.718 89.4433 35.454L87.5113 35.27ZM81.1633 47V24H89.4433V47H81.1633ZM99.861 47V24H107.681L108.003 26.806C108.739 25.702 109.644 24.874 110.717 24.322C111.79 23.7393 112.971 23.448 114.259 23.448C116.16 23.448 117.724 23.8313 118.951 24.598C120.178 25.334 121.082 26.484 121.665 28.048C122.401 26.5453 123.367 25.4107 124.563 24.644C125.79 23.8467 127.154 23.448 128.657 23.448C131.478 23.448 133.564 24.2913 134.913 25.978C136.262 27.6647 136.937 30.2867 136.937 33.844V47H128.657V35.224C128.657 34.3347 128.55 33.614 128.335 33.062C128.151 32.4793 127.86 32.0347 127.461 31.728C127.093 31.4213 126.618 31.2527 126.035 31.222C124.87 31.1607 123.996 31.4213 123.413 32.004C122.83 32.5867 122.539 33.5067 122.539 34.764V47H114.259V35.224C114.259 34.3347 114.152 33.614 113.937 33.062C113.753 32.4793 113.462 32.0347 113.063 31.728C112.695 31.4213 112.22 31.2527 111.637 31.222C110.472 31.1607 109.598 31.4213 109.015 32.004C108.432 32.5867 108.141 33.5067 108.141 34.764V47H99.861ZM153.778 47L153.548 41.71V35.73C153.548 34.6567 153.487 33.6907 153.364 32.832C153.241 31.9733 152.935 31.2987 152.444 30.808C151.953 30.3173 151.156 30.072 150.052 30.072C149.285 30.072 148.657 30.256 148.166 30.624C147.675 30.992 147.261 31.4213 146.924 31.912L139.702 29.612C140.346 28.3547 141.143 27.266 142.094 26.346C143.075 25.426 144.21 24.7207 145.498 24.23C146.817 23.7087 148.273 23.448 149.868 23.448C152.321 23.448 154.422 23.8927 156.17 24.782C157.918 25.6713 159.252 26.9133 160.172 28.508C161.092 30.1027 161.552 31.958 161.552 34.074V47H153.778ZM147.66 47.552C144.992 47.552 142.907 46.954 141.404 45.758C139.932 44.5313 139.196 42.7833 139.196 40.514C139.196 38.122 139.932 36.3587 141.404 35.224C142.907 34.0587 144.992 33.476 147.66 33.476H154.422V38.214H150.926C149.853 38.214 149.025 38.398 148.442 38.766C147.859 39.134 147.568 39.6553 147.568 40.33C147.568 40.79 147.767 41.1427 148.166 41.388C148.565 41.6333 149.117 41.756 149.822 41.756C150.589 41.756 151.248 41.618 151.8 41.342C152.352 41.0353 152.781 40.6213 153.088 40.1C153.395 39.548 153.548 38.9193 153.548 38.214H155.71C155.71 41.1887 155.005 43.4887 153.594 45.114C152.183 46.7393 150.205 47.552 147.66 47.552ZM176.795 47.552C174.281 47.552 172.042 47.046 170.079 46.034C168.117 44.9913 166.583 43.5653 165.479 41.756C164.375 39.916 163.823 37.8307 163.823 35.5C163.823 33.1387 164.375 31.0533 165.479 29.244C166.583 27.4347 168.101 26.024 170.033 25.012C171.965 23.9693 174.189 23.448 176.703 23.448C179.126 23.448 181.349 24.0767 183.373 25.334C185.397 26.5913 186.839 28.416 187.697 30.808L179.785 33.384C179.54 32.7707 179.08 32.2647 178.405 31.866C177.761 31.4673 177.041 31.268 176.243 31.268C175.477 31.268 174.802 31.452 174.219 31.82C173.637 32.1573 173.177 32.648 172.839 33.292C172.502 33.936 172.333 34.672 172.333 35.5C172.333 36.328 172.502 37.064 172.839 37.708C173.177 38.3213 173.652 38.812 174.265 39.18C174.879 39.548 175.569 39.732 176.335 39.732C177.102 39.732 177.807 39.5327 178.451 39.134C179.095 38.7353 179.555 38.2293 179.831 37.616L187.743 40.146C186.885 42.538 185.443 44.378 183.419 45.666C181.426 46.9233 179.218 47.552 176.795 47.552ZM195.379 56.752C194.306 56.752 193.171 56.5373 191.975 56.108C190.779 55.7093 189.828 55.28 189.123 54.82L192.205 48.15C192.542 48.426 192.895 48.6407 193.263 48.794C193.662 48.978 194.03 49.07 194.367 49.07C194.858 49.07 195.318 48.9473 195.747 48.702C196.207 48.4567 196.56 48.0427 196.805 47.46L199.565 41.02L205.775 24H214.975L205.085 47.828C204.38 49.5453 203.644 51.0787 202.877 52.428C202.11 53.7773 201.144 54.8353 199.979 55.602C198.844 56.3687 197.311 56.752 195.379 56.752ZM197.403 47L186.363 24H195.563L202.417 41.02L205.223 47H197.403Z" fill="#FF0083"/>
<path d="M173.309 3.07062C173.655 2.79325 175.292 2.92463 175.366 3.07062C175.44 3.2166 175.087 4.31146 175.087 4.31146C175.449 3.87351 175.856 3.53289 176.307 3.28959C176.767 3.04629 177.271 2.92463 177.82 2.92463C178.378 2.92463 178.853 3.06575 179.245 3.34798C179.647 3.62048 179.955 3.9903 180.171 4.45744C180.386 4.92458 180.494 5.45498 180.494 6.04864C180.494 6.69095 180.381 7.30408 180.156 7.888C179.931 8.46219 179.627 8.978 179.245 9.4354C178.863 9.88308 178.422 10.2383 177.923 10.5011C177.423 10.7541 176.904 10.8806 176.365 10.8806C175.827 10.8806 175.376 10.759 175.014 10.5157C174.661 10.2626 174.421 9.92201 174.294 9.4938C174.294 9.4938 173.481 13.6645 173.353 13.844C173.226 14.0235 171.088 14.0758 171.003 13.844C170.917 13.6123 172.964 3.34798 173.309 3.07062ZM175.983 8.90987C176.248 8.90987 176.502 8.84175 176.747 8.7055C176.992 8.55952 177.213 8.36974 177.408 8.13617C177.604 7.9026 177.756 7.63983 177.864 7.34787C177.981 7.04618 178.04 6.73961 178.04 6.42819C178.04 6.13622 177.986 5.87832 177.879 5.65449C177.771 5.42092 177.619 5.24087 177.423 5.11435C177.227 4.97811 176.992 4.90998 176.718 4.90998C176.581 4.90998 176.434 4.93431 176.277 4.98297C176.13 5.03163 175.983 5.10462 175.836 5.20194C175.689 5.28953 175.547 5.39659 175.41 5.5231C175.283 5.64962 175.043 5.96105 175.043 5.96105L174.705 7.53765C174.754 7.80041 174.832 8.03398 174.94 8.23836C175.058 8.44273 175.205 8.60818 175.381 8.73469C175.567 8.85148 175.768 8.90987 175.983 8.90987Z" fill="#FF0083"/>
<path d="M182.061 10.8751C181.512 10.8751 181.091 10.7534 180.797 10.5101C180.513 10.2571 180.371 9.90186 180.371 9.44445C180.371 9.34713 180.376 9.24981 180.386 9.15249C180.396 9.04543 180.415 8.93838 180.445 8.83133C180.445 8.83133 181.968 0.169475 182.31 0.0870444C182.693 -0.00508556 184.193 -0.0507214 184.503 0.0870429C184.75 0.196475 182.957 8.01383 182.957 8.01383C182.947 8.06249 182.937 8.11602 182.928 8.17441C182.928 8.22307 182.928 8.27173 182.928 8.32039C182.928 8.69994 183.114 8.88972 183.486 8.88972C183.594 8.88972 183.716 8.87512 183.853 8.84593C184 8.807 184.193 8.6875 184.348 8.79035C184.526 8.90796 184.265 10.4052 184.191 10.4371C184.118 10.4691 183.525 10.6804 183.133 10.7583C182.741 10.8361 182.384 10.8751 182.061 10.8751Z" fill="#FF0083"/>
<path d="M187.382 10.8642C186.814 10.8642 186.324 10.7328 185.913 10.47C185.511 10.1975 185.198 9.82772 184.973 9.36058C184.757 8.88371 184.649 8.34844 184.649 7.75478C184.649 7.10273 184.762 6.48475 184.987 5.90082C185.213 5.3169 185.521 4.80596 185.913 4.36802C186.305 3.92034 186.75 3.56512 187.25 3.30235C187.759 3.03959 188.293 2.9082 188.851 2.9082C189.351 2.9082 189.777 3.03959 190.13 3.30235C190.492 3.55539 190.737 3.89114 190.864 4.30962C190.864 4.30962 191.041 3.21355 191.129 3.09798C191.217 2.98241 193.127 2.80235 193.494 3.09798C193.815 3.35608 192.407 8.09054 192.407 8.09054C192.397 8.14893 192.387 8.20246 192.378 8.25112C192.378 8.29978 192.378 8.34844 192.378 8.3971C192.378 8.62094 192.518 8.52435 192.745 8.74746C192.972 8.97056 192.61 10.6683 192.334 10.7182C192.057 10.7682 191.927 10.7863 191.761 10.8058C191.594 10.8253 191.452 10.835 191.334 10.835C190.952 10.835 190.649 10.762 190.424 10.616C190.198 10.4603 190.086 10.2073 190.086 9.85692C190.086 9.81799 190.086 9.77906 190.086 9.74013C190.086 9.70121 190.091 9.65741 190.1 9.60875C190.11 9.56009 190.12 9.50656 190.13 9.44817C189.767 9.92504 189.341 10.2803 188.851 10.5138C188.371 10.7474 187.882 10.8642 187.382 10.8642ZM188.44 8.89344C188.587 8.89344 188.734 8.86911 188.881 8.82045C189.038 8.76205 189.189 8.68906 189.336 8.60148C189.483 8.51389 189.625 8.40197 189.762 8.26572C189.9 8.12947 190.022 7.98349 190.13 7.82777L190.468 6.22198C190.438 5.95921 190.36 5.73051 190.233 5.53587C190.115 5.34123 189.963 5.18551 189.777 5.06873C189.591 4.95194 189.395 4.89355 189.189 4.89355C188.915 4.89355 188.656 4.96168 188.411 5.09792C188.166 5.23417 187.945 5.41908 187.75 5.65265C187.563 5.88622 187.412 6.15385 187.294 6.45555C187.186 6.74751 187.132 7.05407 187.132 7.37523C187.132 7.66719 187.181 7.92996 187.279 8.16353C187.387 8.38737 187.539 8.56741 187.735 8.70366C187.931 8.83018 188.166 8.89344 188.44 8.89344Z" fill="#FF0083"/>
<path d="M193.256 9.26634C193.386 8.86866 197.846 4.78435 197.84 4.62413C197.829 4.3453 194.804 4.85931 194.804 4.62413C194.804 3.97671 194.863 3.58145 195.157 3.00374C195.311 2.70043 200.983 2.59763 201.049 3.00374C201.099 3.31726 200.914 3.8723 200.74 4.40516C200.474 5.21913 195.874 8.85995 196.156 9.04737C196.438 9.23479 199.801 8.81486 199.859 9.04737C199.916 9.27988 199.633 10.4107 199.506 10.6678C199.404 10.8733 193.328 11.0275 193.32 10.6678C193.309 10.1076 193.082 9.79921 193.256 9.26634Z" fill="#FF0083"/>
<path d="M200.303 9.26634C200.433 8.86866 204.893 4.78435 204.887 4.62413C204.876 4.3453 201.851 4.85931 201.851 4.62413C201.851 3.97671 201.91 3.58145 202.204 3.00374C202.358 2.70043 208.03 2.59763 208.096 3.00374C208.146 3.31726 207.961 3.8723 207.787 4.40516C207.521 5.21913 202.921 8.85995 203.203 9.04737C203.485 9.23479 206.848 8.81486 206.905 9.04737C206.963 9.27988 206.68 10.4107 206.553 10.6678C206.451 10.8733 200.375 11.0275 200.367 10.6678C200.356 10.1076 200.129 9.79921 200.303 9.26634Z" fill="#FF0083"/>
<path d="M209.84 10.8642C209.272 10.8642 208.782 10.7328 208.371 10.47C207.969 10.1975 207.656 9.82772 207.431 9.36058C207.215 8.88371 207.107 8.34844 207.107 7.75478C207.107 7.10273 207.22 6.48475 207.445 5.90082C207.671 5.3169 207.979 4.80596 208.371 4.36802C208.763 3.92034 209.208 3.56512 209.708 3.30235C210.217 3.03959 210.751 2.9082 211.309 2.9082C211.809 2.9082 212.235 3.03959 212.588 3.30235C212.95 3.55539 213.195 3.89114 213.322 4.30962C213.322 4.30962 213.499 3.21355 213.587 3.09798C213.675 2.98241 215.585 2.80235 215.952 3.09798C216.273 3.35608 214.865 8.09054 214.865 8.09054C214.855 8.14893 214.845 8.20246 214.836 8.25112C214.836 8.29978 214.836 8.34844 214.836 8.3971C214.836 8.62094 214.976 8.52435 215.203 8.74746C215.43 8.97056 215.068 10.6683 214.792 10.7182C214.515 10.7682 214.385 10.7863 214.219 10.8058C214.052 10.8253 213.91 10.835 213.792 10.835C213.41 10.835 213.107 10.762 212.882 10.616C212.656 10.4603 212.544 10.2073 212.544 9.85692C212.544 9.81799 212.544 9.77906 212.544 9.74013C212.544 9.70121 212.549 9.65741 212.558 9.60875C212.568 9.56009 212.578 9.50656 212.588 9.44817C212.225 9.92504 211.799 10.2803 211.309 10.5138C210.83 10.7474 210.34 10.8642 209.84 10.8642ZM210.898 8.89344C211.045 8.89344 211.192 8.86911 211.339 8.82045C211.496 8.76205 211.647 8.68906 211.794 8.60148C211.941 8.51389 212.083 8.40197 212.22 8.26572C212.358 8.12947 212.48 7.98349 212.588 7.82777L212.926 6.22198C212.896 5.95921 212.818 5.73051 212.691 5.53587C212.573 5.34123 212.421 5.18551 212.235 5.06873C212.049 4.95194 211.853 4.89355 211.647 4.89355C211.373 4.89355 211.114 4.96168 210.869 5.09792C210.624 5.23417 210.403 5.41908 210.208 5.65265C210.021 5.88622 209.87 6.15385 209.752 6.45555C209.644 6.74751 209.59 7.05407 209.59 7.37523C209.59 7.66719 209.639 7.92996 209.737 8.16353C209.845 8.38737 209.997 8.56741 210.193 8.70366C210.389 8.83018 210.624 8.89344 210.898 8.89344Z" fill="#FF0083"/>
</svg>
