<svg width="12" height="14" viewBox="0 0 12 14" fill="none" xmlns="http://www.w3.org/2000/svg">
<path d="M11.1924 5.83398C11.1924 9.91732 5.94238 13.4173 5.94238 13.4173C5.94238 13.4173 0.692383 9.91732 0.692383 5.83398C0.692383 4.4416 1.24551 3.10624 2.23007 2.12167C3.21464 1.13711 4.55 0.583984 5.94238 0.583984C7.33477 0.583984 8.67013 1.13711 9.65469 2.12167C10.6393 3.10624 11.1924 4.4416 11.1924 5.83398Z" stroke="#4A4A4A" stroke-linecap="round" stroke-linejoin="round"/>
<path d="M5.94238 7.58398C6.90888 7.58398 7.69238 6.80048 7.69238 5.83398C7.69238 4.86749 6.90888 4.08398 5.94238 4.08398C4.97588 4.08398 4.19238 4.86749 4.19238 5.83398C4.19238 6.80048 4.97588 7.58398 5.94238 7.58398Z" stroke="#4A4A4A" stroke-linecap="round" stroke-linejoin="round"/>
</svg>
