<svg width="38" height="42" viewBox="0 0 38 42" fill="none" xmlns="http://www.w3.org/2000/svg">
<path d="M8.03125 10.5951L18.625 2.35547L29.2188 10.5951V23.543C29.2188 24.1673 28.9707 24.7661 28.5292 25.2076C28.0877 25.6491 27.4889 25.8971 26.8646 25.8971H10.3854C9.76105 25.8971 9.16226 25.6491 8.72077 25.2076C8.27928 24.7661 8.03125 24.1673 8.03125 23.543V10.5951Z" fill="#E51A83"/>
<path d="M16.4906 13.132C16.7715 12.9066 18.1023 13.0134 18.1627 13.132C18.223 13.2507 17.9357 14.1407 17.9357 14.1407C18.2304 13.7847 18.5608 13.5078 18.9271 13.31C19.3013 13.1122 19.7114 13.0134 20.1573 13.0134C20.6111 13.0134 20.9973 13.1281 21.3158 13.3575C21.6423 13.579 21.8931 13.8797 22.0683 14.2594C22.2435 14.6391 22.331 15.0703 22.331 15.5529C22.331 16.0751 22.2395 16.5735 22.0563 17.0482C21.8732 17.5149 21.6264 17.9342 21.3158 18.3061C21.0053 18.67 20.647 18.9588 20.2409 19.1724C19.8348 19.3781 19.4128 19.4809 18.9748 19.4809C18.5369 19.4809 18.1706 19.382 17.876 19.1842C17.5894 18.9786 17.3943 18.7017 17.2908 18.3536C17.2908 18.3536 16.6303 21.744 16.5264 21.8899C16.4224 22.0359 14.6846 22.0783 14.6154 21.8899C14.5462 21.7016 16.2096 13.3575 16.4906 13.132ZM18.6643 17.8789C18.8793 17.8789 19.0863 17.8235 19.2854 17.7127C19.4845 17.5941 19.6636 17.4398 19.8229 17.2499C19.9821 17.06 20.1055 16.8464 20.1931 16.6091C20.2887 16.3638 20.3364 16.1146 20.3364 15.8615C20.3364 15.6241 20.2926 15.4145 20.2051 15.2325C20.1175 15.0426 19.9941 14.8963 19.8348 14.7934C19.6756 14.6827 19.4844 14.6273 19.2615 14.6273C19.15 14.6273 19.0306 14.6471 18.9032 14.6866C18.7837 14.7262 18.6643 14.7855 18.5449 14.8646C18.4254 14.9358 18.31 15.0229 18.1985 15.1257C18.095 15.2285 17.8999 15.4817 17.8999 15.4817L17.6252 16.7634C17.665 16.977 17.7287 17.1668 17.8163 17.333C17.9119 17.4991 18.0313 17.6336 18.1746 17.7365C18.3259 17.8314 18.4891 17.8789 18.6643 17.8789Z" fill="white"/>
<path d="M1.91158 32.7946C2.19764 32.565 3.55283 32.6738 3.61427 32.7946C3.67572 32.9154 3.38319 33.8217 3.38319 33.8217C3.68319 33.4592 4.01968 33.1773 4.39265 32.9759C4.77372 32.7745 5.19129 32.6738 5.64534 32.6738C6.1075 32.6738 6.50074 32.7906 6.82506 33.0242C7.15749 33.2498 7.4129 33.5559 7.59127 33.9426C7.76965 34.3293 7.85884 34.7683 7.85884 35.2597C7.85884 35.7914 7.7656 36.299 7.57911 36.7823C7.39263 37.2576 7.14128 37.6846 6.82506 38.0632C6.50885 38.4338 6.14399 38.7279 5.73048 38.9454C5.31697 39.1548 4.88724 39.2595 4.4413 39.2595C3.99535 39.2595 3.62238 39.1588 3.32238 38.9574C3.03049 38.748 2.83185 38.466 2.72644 38.1116C2.72644 38.1116 2.05392 41.564 1.94807 41.7126C1.84222 41.8612 0.0726079 41.9044 0.00213894 41.7126C-0.06833 41.5208 1.62553 33.0242 1.91158 32.7946ZM4.12508 37.6282C4.344 37.6282 4.55481 37.5718 4.75751 37.459C4.96021 37.3382 5.14264 37.1811 5.3048 36.9878C5.46697 36.7944 5.59264 36.5769 5.68183 36.3352C5.77912 36.0855 5.82777 35.8317 5.82777 35.5739C5.82777 35.3322 5.78318 35.1188 5.69399 34.9335C5.6048 34.7401 5.47913 34.5911 5.31697 34.4864C5.15481 34.3736 4.96021 34.3172 4.73319 34.3172C4.61967 34.3172 4.49805 34.3373 4.36832 34.3776C4.2467 34.4179 4.12508 34.4783 4.00346 34.5589C3.88184 34.6314 3.76427 34.72 3.65076 34.8247C3.54536 34.9294 3.34671 35.1872 3.34671 35.1872L3.06698 36.4923C3.10752 36.7098 3.17239 36.9032 3.26157 37.0723C3.35887 37.2415 3.48049 37.3785 3.62644 37.4832C3.78049 37.5799 3.9467 37.6282 4.12508 37.6282Z" fill="#E51A83"/>
<path d="M9.15645 39.2521C8.7024 39.2521 8.35375 39.1514 8.11051 38.95C7.87538 38.7406 7.75781 38.4465 7.75781 38.0679C7.75781 37.9873 7.76187 37.9068 7.76997 37.8262C7.77808 37.7376 7.7943 37.649 7.81862 37.5604C7.81862 37.5604 9.08009 30.3903 9.36321 30.3221C9.67963 30.2458 10.9215 30.208 11.1785 30.3221C11.3826 30.4126 9.89834 36.8837 9.89834 36.8837C9.89023 36.924 9.88212 36.9683 9.87401 37.0166C9.87401 37.0569 9.87401 37.0972 9.87401 37.1374C9.87401 37.4516 10.0281 37.6087 10.3362 37.6087C10.4254 37.6087 10.5267 37.5966 10.6402 37.5725C10.7618 37.5402 10.9215 37.4413 11.05 37.5265C11.1969 37.6238 10.9808 38.8632 10.92 38.8896C10.8591 38.9161 10.3686 39.091 10.0443 39.1555C9.71996 39.2199 9.42402 39.2521 9.15645 39.2521Z" fill="#E51A83"/>
<path d="M13.5629 39.2459C13.0927 39.2459 12.6873 39.1372 12.3467 38.9197C12.0143 38.6941 11.7548 38.388 11.5683 38.0013C11.39 37.6065 11.3008 37.1635 11.3008 36.672C11.3008 36.1323 11.394 35.6207 11.5805 35.1374C11.767 34.654 12.0224 34.2311 12.3467 33.8686C12.671 33.498 13.04 33.2039 13.4535 32.9864C13.8751 32.7689 14.317 32.6602 14.7791 32.6602C15.1926 32.6602 15.5453 32.7689 15.8372 32.9864C16.1372 33.1959 16.3399 33.4738 16.4453 33.8202C16.4453 33.8202 16.5914 32.9129 16.6643 32.8172C16.7371 32.7216 18.3187 32.5725 18.6223 32.8172C18.8875 33.0309 17.7224 36.95 17.7224 36.95C17.7142 36.9983 17.7061 37.0426 17.698 37.0829C17.698 37.1232 17.698 37.1635 17.698 37.2037C17.698 37.389 17.814 37.3091 18.0021 37.4938C18.1902 37.6784 17.8904 39.0838 17.6615 39.1251C17.4327 39.1665 17.3251 39.1815 17.1872 39.1976C17.0494 39.2137 16.9318 39.2218 16.8345 39.2218C16.5183 39.2218 16.267 39.1614 16.0805 39.0405C15.894 38.9116 15.8007 38.7022 15.8007 38.4121C15.8007 38.3799 15.8007 38.3477 15.8007 38.3155C15.8007 38.2833 15.8048 38.247 15.8129 38.2067C15.821 38.1664 15.8291 38.1221 15.8372 38.0738C15.5372 38.4685 15.1845 38.7626 14.7791 38.9559C14.3818 39.1493 13.9764 39.2459 13.5629 39.2459ZM14.4386 37.6146C14.5602 37.6146 14.6818 37.5945 14.8035 37.5542C14.9332 37.5058 15.0589 37.4454 15.1805 37.3729C15.3021 37.3004 15.4197 37.2078 15.5332 37.095C15.6467 36.9822 15.748 36.8614 15.8372 36.7325L16.117 35.4032C16.0926 35.1857 16.0278 34.9964 15.9224 34.8353C15.8251 34.6742 15.6994 34.5453 15.5453 34.4486C15.3913 34.3519 15.2291 34.3036 15.0589 34.3036C14.8318 34.3036 14.617 34.36 14.4143 34.4728C14.2116 34.5855 14.0291 34.7386 13.867 34.932C13.7129 35.1253 13.5873 35.3468 13.49 35.5966C13.4008 35.8383 13.3562 36.092 13.3562 36.3579C13.3562 36.5995 13.3967 36.8171 13.4778 37.0104C13.567 37.1957 13.6927 37.3447 13.8548 37.4575C14.017 37.5622 14.2116 37.6146 14.4386 37.6146Z" fill="#E51A83"/>
<path d="M18.4213 37.921C18.5288 37.5918 22.2211 34.2109 22.2158 34.0783C22.2067 33.8475 19.7032 34.273 19.7032 34.0783C19.7032 33.5424 19.7516 33.2152 19.9951 32.737C20.1229 32.4859 24.818 32.4008 24.8721 32.737C24.9138 32.9965 24.7607 33.456 24.6167 33.897C24.3966 34.5708 20.5886 37.5846 20.8221 37.7398C21.0556 37.8949 23.8395 37.5473 23.8869 37.7398C23.9344 37.9322 23.7004 38.8683 23.595 39.0811C23.5107 39.2513 18.4808 39.3789 18.4748 39.0811C18.4655 38.6174 18.2772 38.3621 18.4213 37.921Z" fill="#E51A83"/>
<path d="M24.2572 37.921C24.3648 37.5918 28.057 34.2109 28.0518 34.0783C28.0427 33.8475 25.5391 34.273 25.5391 34.0783C25.5391 33.5424 25.5875 33.2152 25.831 32.737C25.9588 32.4859 30.6539 32.4008 30.708 32.737C30.7497 32.9965 30.5967 33.456 30.4526 33.897C30.2325 34.5708 26.4245 37.5846 26.658 37.7398C26.8915 37.8949 29.6754 37.5473 29.7229 37.7398C29.7703 37.9322 29.5364 38.8683 29.431 39.0811C29.3467 39.2513 24.3167 39.3789 24.3107 39.0811C24.3014 38.6174 24.1131 38.3621 24.2572 37.921Z" fill="#E51A83"/>
<path d="M32.1489 39.2459C31.6786 39.2459 31.2732 39.1372 30.9327 38.9197C30.6002 38.6941 30.3408 38.388 30.1543 38.0013C29.9759 37.6065 29.8867 37.1635 29.8867 36.672C29.8867 36.1323 29.98 35.6207 30.1664 35.1374C30.3529 34.654 30.6083 34.2311 30.9327 33.8686C31.257 33.498 31.6259 33.2039 32.0394 32.9864C32.461 32.7689 32.9029 32.6602 33.3651 32.6602C33.7786 32.6602 34.1313 32.7689 34.4232 32.9864C34.7232 33.1959 34.9259 33.4738 35.0313 33.8202C35.0313 33.8202 35.1773 32.9129 35.2502 32.8172C35.323 32.7216 36.9046 32.5725 37.2083 32.8172C37.4734 33.0309 36.3083 36.95 36.3083 36.95C36.3002 36.9983 36.2921 37.0426 36.284 37.0829C36.284 37.1232 36.284 37.1635 36.284 37.2037C36.284 37.389 36.3999 37.3091 36.588 37.4938C36.7761 37.6784 36.4764 39.0838 36.2475 39.1251C36.0186 39.1665 35.911 39.1815 35.7732 39.1976C35.6353 39.2137 35.5178 39.2218 35.4205 39.2218C35.1042 39.2218 34.8529 39.1614 34.6664 39.0405C34.4799 38.9116 34.3867 38.7022 34.3867 38.4121C34.3867 38.3799 34.3867 38.3477 34.3867 38.3155C34.3867 38.2833 34.3907 38.247 34.3988 38.2067C34.407 38.1664 34.4151 38.1221 34.4232 38.0738C34.1232 38.4685 33.7705 38.7626 33.3651 38.9559C32.9678 39.1493 32.5624 39.2459 32.1489 39.2459ZM33.0245 37.6146C33.1462 37.6146 33.2678 37.5945 33.3894 37.5542C33.5191 37.5058 33.6448 37.4454 33.7664 37.3729C33.888 37.3004 34.0056 37.2078 34.1191 37.095C34.2326 36.9822 34.334 36.8614 34.4232 36.7325L34.7029 35.4032C34.6786 35.1857 34.6137 34.9964 34.5083 34.8353C34.411 34.6742 34.2853 34.5453 34.1313 34.4486C33.9772 34.3519 33.8151 34.3036 33.6448 34.3036C33.4178 34.3036 33.2029 34.36 33.0002 34.4728C32.7975 34.5855 32.6151 34.7386 32.4529 34.932C32.2989 35.1253 32.1732 35.3468 32.0759 35.5966C31.9867 35.8383 31.9421 36.092 31.9421 36.3579C31.9421 36.5995 31.9826 36.8171 32.0637 37.0104C32.1529 37.1957 32.2786 37.3447 32.4408 37.4575C32.6029 37.5622 32.7975 37.6146 33.0245 37.6146Z" fill="#E51A83"/>
</svg>
