<svg width="38" height="44" viewBox="0 0 38 44" fill="none" xmlns="http://www.w3.org/2000/svg">
<path d="M11.75 2.33398L8.25 7.00065V23.334C8.25 23.9528 8.49583 24.5463 8.93342 24.9839C9.371 25.4215 9.96449 25.6673 10.5833 25.6673H26.9167C27.5355 25.6673 28.129 25.4215 28.5666 24.9839C29.0042 24.5463 29.25 23.9528 29.25 23.334V7.00065L25.75 2.33398H11.75Z" stroke="#4A4A4A" stroke-linecap="round" stroke-linejoin="round"/>
<path d="M8.25 7H29.25" stroke="#4A4A4A" stroke-linecap="round" stroke-linejoin="round"/>
<path d="M23.4173 11.666C23.4173 12.9037 22.9257 14.0907 22.0505 14.9658C21.1753 15.841 19.9883 16.3327 18.7507 16.3327C17.513 16.3327 16.326 15.841 15.4508 14.9658C14.5756 14.0907 14.084 12.9037 14.084 11.666" stroke="#4A4A4A" stroke-linecap="round" stroke-linejoin="round"/>
<path d="M4.98525 41.144C4.16925 41.144 3.44525 40.96 2.81325 40.592C2.18125 40.224 1.68525 39.712 1.32525 39.056C0.97325 38.4 0.79725 37.648 0.79725 36.8C0.79725 35.952 0.97325 35.204 1.32525 34.556C1.68525 33.9 2.17725 33.388 2.80125 33.02C3.42525 32.644 4.14525 32.456 4.96125 32.456C5.77725 32.456 6.49725 32.644 7.12125 33.02C7.74525 33.388 8.23325 33.9 8.58525 34.556C8.93725 35.204 9.11325 35.952 9.11325 36.8C9.11325 37.648 8.93725 38.4 8.58525 39.056C8.23325 39.712 7.74525 40.224 7.12125 40.592C6.50525 40.96 5.79325 41.144 4.98525 41.144ZM4.98525 40.064C5.56125 40.064 6.06925 39.924 6.50925 39.644C6.94925 39.364 7.29325 38.98 7.54125 38.492C7.78925 38.004 7.91325 37.44 7.91325 36.8C7.91325 36.168 7.78525 35.608 7.52925 35.12C7.28125 34.624 6.93325 34.236 6.48525 33.956C6.04525 33.676 5.53725 33.536 4.96125 33.536C4.38525 33.536 3.87325 33.676 3.42525 33.956C2.97725 34.236 2.62525 34.624 2.36925 35.12C2.12125 35.608 1.99725 36.168 1.99725 36.8C1.99725 37.44 2.12525 38.004 2.38125 38.492C2.63725 38.98 2.98925 39.364 3.43725 39.644C3.89325 39.924 4.40925 40.064 4.98525 40.064ZM11.1208 37.772C11.1208 37.124 11.2448 36.596 11.4928 36.188C11.7408 35.78 12.0608 35.476 12.4528 35.276C12.8448 35.076 13.2568 34.976 13.6888 34.976V36.056C13.3288 36.056 12.9848 36.112 12.6568 36.224C12.3368 36.328 12.0728 36.504 11.8648 36.752C11.6648 36.992 11.5648 37.32 11.5648 37.736L11.1208 37.772ZM10.4248 41V35H11.5648V41H10.4248ZM19.0004 41L18.9524 39.884V32.6H20.0804V41H19.0004ZM16.9844 41.144C16.4404 41.144 15.9644 41.012 15.5564 40.748C15.1564 40.484 14.8404 40.116 14.6084 39.644C14.3844 39.172 14.2724 38.624 14.2724 38C14.2724 37.368 14.3844 36.82 14.6084 36.356C14.8404 35.884 15.1564 35.516 15.5564 35.252C15.9644 34.988 16.4404 34.856 16.9844 34.856C17.4884 34.856 17.9244 34.988 18.2924 35.252C18.6684 35.516 18.9564 35.884 19.1564 36.356C19.3564 36.82 19.4564 37.368 19.4564 38C19.4564 38.624 19.3564 39.172 19.1564 39.644C18.9564 40.116 18.6684 40.484 18.2924 40.748C17.9244 41.012 17.4884 41.144 16.9844 41.144ZM17.2484 40.112C17.5844 40.112 17.8804 40.024 18.1364 39.848C18.3924 39.664 18.5924 39.416 18.7364 39.104C18.8804 38.784 18.9524 38.416 18.9524 38C18.9524 37.584 18.8804 37.22 18.7364 36.908C18.5924 36.588 18.3924 36.34 18.1364 36.164C17.8804 35.98 17.5804 35.888 17.2364 35.888C16.8844 35.888 16.5724 35.98 16.3004 36.164C16.0284 36.34 15.8164 36.588 15.6644 36.908C15.5124 37.22 15.4364 37.584 15.4364 38C15.4364 38.416 15.5124 38.784 15.6644 39.104C15.8244 39.416 16.0404 39.664 16.3124 39.848C16.5844 40.024 16.8964 40.112 17.2484 40.112ZM24.3151 41.144C23.7311 41.144 23.2151 41.012 22.7671 40.748C22.3191 40.476 21.9671 40.104 21.7111 39.632C21.4551 39.16 21.3271 38.616 21.3271 38C21.3271 37.384 21.4551 36.84 21.7111 36.368C21.9671 35.896 22.3191 35.528 22.7671 35.264C23.2231 34.992 23.7431 34.856 24.3271 34.856C24.8711 34.856 25.3511 34.996 25.7671 35.276C26.1911 35.548 26.5191 35.94 26.7511 36.452C26.9911 36.956 27.1111 37.552 27.1111 38.24H25.9711C25.9791 37.728 25.9151 37.296 25.7791 36.944C25.6511 36.592 25.4591 36.328 25.2031 36.152C24.9551 35.968 24.6551 35.876 24.3031 35.876C23.9271 35.876 23.6031 35.964 23.3311 36.14C23.0591 36.308 22.8471 36.552 22.6951 36.872C22.5511 37.184 22.4791 37.568 22.4791 38.024C22.4791 38.448 22.5631 38.816 22.7311 39.128C22.8991 39.432 23.1271 39.672 23.4151 39.848C23.7031 40.016 24.0311 40.1 24.3991 40.1C24.7911 40.1 25.1151 40.008 25.3711 39.824C25.6351 39.64 25.8431 39.404 25.9951 39.116L27.0151 39.584C26.8551 39.896 26.6471 40.172 26.3911 40.412C26.1351 40.644 25.8311 40.824 25.4791 40.952C25.1351 41.08 24.7471 41.144 24.3151 41.144ZM22.0711 38.24L22.0831 37.304H26.4751V38.24H22.0711ZM28.9333 37.772C28.9333 37.124 29.0573 36.596 29.3053 36.188C29.5533 35.78 29.8733 35.476 30.2653 35.276C30.6573 35.076 31.0693 34.976 31.5013 34.976V36.056C31.1413 36.056 30.7973 36.112 30.4693 36.224C30.1493 36.328 29.8853 36.504 29.6773 36.752C29.4773 36.992 29.3773 37.32 29.3773 37.736L28.9333 37.772ZM28.2373 41V35H29.3773V41H28.2373ZM34.5689 41.144C34.1449 41.144 33.7649 41.08 33.4289 40.952C33.1009 40.824 32.8209 40.652 32.5889 40.436C32.3649 40.22 32.1969 39.976 32.0849 39.704L33.0689 39.272C33.1969 39.52 33.3889 39.724 33.6449 39.884C33.9009 40.044 34.1849 40.124 34.4969 40.124C34.8409 40.124 35.1249 40.06 35.3489 39.932C35.5729 39.804 35.6849 39.624 35.6849 39.392C35.6849 39.168 35.6009 38.992 35.4329 38.864C35.2649 38.736 35.0209 38.632 34.7009 38.552L34.1369 38.408C33.5769 38.256 33.1409 38.028 32.8289 37.724C32.5249 37.42 32.3729 37.076 32.3729 36.692C32.3729 36.108 32.5609 35.656 32.9369 35.336C33.3129 35.016 33.8689 34.856 34.6049 34.856C34.9649 34.856 35.2929 34.908 35.5889 35.012C35.8929 35.116 36.1489 35.264 36.3569 35.456C36.5729 35.648 36.7249 35.876 36.8129 36.14L35.8529 36.572C35.7569 36.332 35.5929 36.156 35.3609 36.044C35.1289 35.924 34.8569 35.864 34.5449 35.864C34.2249 35.864 33.9729 35.936 33.7889 36.08C33.6049 36.216 33.5129 36.408 33.5129 36.656C33.5129 36.792 33.5889 36.924 33.7409 37.052C33.9009 37.172 34.1329 37.272 34.4369 37.352L35.0849 37.508C35.4769 37.604 35.8009 37.752 36.0569 37.952C36.3129 38.144 36.5049 38.364 36.6329 38.612C36.7609 38.852 36.8249 39.104 36.8249 39.368C36.8249 39.728 36.7249 40.044 36.5249 40.316C36.3329 40.58 36.0649 40.784 35.7209 40.928C35.3849 41.072 35.0009 41.144 34.5689 41.144Z" fill="#9C9C9C"/>
</svg>
