<svg width="24" height="24" viewBox="0 0 24 24" fill="none" xmlns="http://www.w3.org/2000/svg">
<path d="M12 11.25H9V6.75H12C12.5967 6.75 13.169 6.98705 13.591 7.40901C14.0129 7.83097 14.25 8.40326 14.25 9C14.25 9.59674 14.0129 10.169 13.591 10.591C13.169 11.0129 12.5967 11.25 12 11.25ZM21 4.5V19.5C21 19.8978 20.842 20.2794 20.5607 20.5607C20.2794 20.842 19.8978 21 19.5 21H4.5C4.10218 21 3.72064 20.842 3.43934 20.5607C3.15804 20.2794 3 19.8978 3 19.5V4.5C3 4.10218 3.15804 3.72064 3.43934 3.43934C3.72064 3.15804 4.10218 3 4.5 3H19.5C19.8978 3 20.2794 3.15804 20.5607 3.43934C20.842 3.72064 21 4.10218 21 4.5ZM17.7806 17.4694L16.4353 16.125L17.7806 14.7806C17.9214 14.6399 18.0004 14.449 18.0004 14.25C18.0004 14.051 17.9214 13.8601 17.7806 13.7194C17.6399 13.5786 17.449 13.4996 17.25 13.4996C17.051 13.4996 16.8601 13.5786 16.7194 13.7194L15.375 15.0647L12.9375 12.6272C13.8179 12.3962 14.5843 11.8528 15.0936 11.0984C15.603 10.3441 15.8206 9.43019 15.7058 8.52722C15.5911 7.62425 15.1518 6.79384 14.47 6.19085C13.7881 5.58786 12.9102 5.25346 12 5.25H8.25C8.05109 5.25 7.86032 5.32902 7.71967 5.46967C7.57902 5.61032 7.5 5.80109 7.5 6V16.5C7.5 16.6989 7.57902 16.8897 7.71967 17.0303C7.86032 17.171 8.05109 17.25 8.25 17.25C8.44891 17.25 8.63968 17.171 8.78033 17.0303C8.92098 16.8897 9 16.6989 9 16.5V12.75H10.9397L14.3147 16.125L12.9694 17.4694C12.8286 17.6101 12.7496 17.801 12.7496 18C12.7496 18.199 12.8286 18.3899 12.9694 18.5306C13.1101 18.6714 13.301 18.7504 13.5 18.7504C13.699 18.7504 13.8899 18.6714 14.0306 18.5306L15.375 17.1853L16.7194 18.5306C16.7891 18.6003 16.8718 18.6556 16.9628 18.6933C17.0539 18.731 17.1515 18.7504 17.25 18.7504C17.3485 18.7504 17.4461 18.731 17.5372 18.6933C17.6282 18.6556 17.7109 18.6003 17.7806 18.5306C17.8503 18.4609 17.9056 18.3782 17.9433 18.2872C17.981 18.1961 18.0004 18.0985 18.0004 18C18.0004 17.9015 17.981 17.8039 17.9433 17.7128C17.9056 17.6218 17.8503 17.5391 17.7806 17.4694Z" fill="#50C154"/>
</svg>
