<svg width="28" height="28" viewBox="0 0 28 28" fill="none" xmlns="http://www.w3.org/2000/svg">
<path d="M14.5783 21.6829L19.3523 24.1913C19.5539 24.2973 19.7813 24.3447 20.0085 24.328C20.2357 24.3113 20.4537 24.2312 20.6377 24.0968C20.8217 23.9624 20.9643 23.7791 21.0493 23.5677C21.1343 23.3563 21.1583 23.1253 21.1186 22.9009L20.2051 17.5903C20.1717 17.3945 20.1865 17.1935 20.2481 17.0047C20.3097 16.8159 20.4162 16.6449 20.5586 16.5064L24.4203 12.7428C24.5848 12.5848 24.7017 12.3838 24.7575 12.1626C24.8133 11.9414 24.8058 11.709 24.7358 11.4918C24.6659 11.2747 24.5363 11.0816 24.3619 10.9346C24.1875 10.7875 23.9753 10.6925 23.7494 10.6603L18.4154 9.89378C18.2199 9.86494 18.0343 9.78874 17.8749 9.67183C17.7155 9.55491 17.587 9.40082 17.5008 9.22295L15.0648 4.35211C14.9651 4.14593 14.8094 3.97202 14.6154 3.85032C14.4214 3.72862 14.1971 3.66406 13.9681 3.66406C13.7391 3.66406 13.5147 3.72862 13.3208 3.85032C13.1268 3.97202 12.9711 4.14593 12.8714 4.35211L10.4389 9.22295C10.3528 9.40067 10.2245 9.55467 10.0653 9.67158C9.90612 9.78848 9.72079 9.86476 9.52543 9.89378L4.26376 10.6603C4.03731 10.6913 3.82415 10.7854 3.64865 10.9318C3.47315 11.0782 3.34239 11.2711 3.27132 11.4883C3.20025 11.7055 3.19173 11.9384 3.24675 12.1602C3.30176 12.382 3.41809 12.5839 3.58243 12.7428L7.44293 16.5064C7.58631 16.6444 7.69354 16.8156 7.75519 17.0048C7.81684 17.194 7.831 17.3955 7.79643 17.5914L6.88293 22.8998C6.8431 23.1241 6.86696 23.355 6.95182 23.5664C7.03667 23.7778 7.17911 23.9612 7.36295 24.0957C7.5468 24.2302 7.76468 24.3105 7.99185 24.3274C8.21902 24.3443 8.44638 24.2971 8.64809 24.1913L13.4233 21.6829C13.6008 21.5868 13.7995 21.5364 14.0013 21.5364C14.2032 21.5364 14.4019 21.5868 14.5794 21.6829" stroke="#4A4A4A" stroke-linecap="round" stroke-linejoin="round"/>
</svg>
