<svg width="29" height="28" viewBox="0 0 29 28" fill="none" xmlns="http://www.w3.org/2000/svg">
<path d="M15.0783 21.6849L19.8523 24.1932C20.0539 24.2993 20.2813 24.3467 20.5085 24.33C20.7357 24.3133 20.9537 24.2332 21.1377 24.0988C21.3217 23.9644 21.4643 23.7811 21.5493 23.5697C21.6343 23.3583 21.6583 23.1273 21.6186 22.9029L20.7051 17.5922C20.6717 17.3965 20.6865 17.1955 20.7481 17.0067C20.8097 16.8179 20.9162 16.6469 21.0586 16.5084L24.9203 12.7447C25.0848 12.5868 25.2017 12.3857 25.2575 12.1645C25.3133 11.9433 25.3058 11.7109 25.2358 11.4938C25.1659 11.2766 25.0363 11.0835 24.8619 10.9365C24.6875 10.7895 24.4753 10.6944 24.2494 10.6622L18.9154 9.89573C18.7199 9.86689 18.5343 9.7907 18.3749 9.67378C18.2155 9.55687 18.087 9.40277 18.0008 9.2249L15.5648 4.35407C15.4651 4.14789 15.3094 3.97397 15.1154 3.85227C14.9214 3.73057 14.6971 3.66602 14.4681 3.66602C14.2391 3.66602 14.0147 3.73057 13.8208 3.85227C13.6268 3.97397 13.4711 4.14789 13.3714 4.35407L10.9389 9.2249C10.8528 9.40262 10.7245 9.55662 10.5653 9.67353C10.4061 9.79044 10.2208 9.86671 10.0254 9.89573L4.76376 10.6622C4.53731 10.6932 4.32415 10.7873 4.14865 10.9337C3.97315 11.0802 3.84239 11.273 3.77132 11.4902C3.70025 11.7075 3.69173 11.9403 3.74675 12.1622C3.80176 12.384 3.91809 12.5859 4.08243 12.7447L7.94293 16.5084C8.08631 16.6464 8.19354 16.8175 8.25519 17.0067C8.31684 17.196 8.331 17.3974 8.29643 17.5934L7.38293 22.9017C7.3431 23.126 7.36696 23.357 7.45182 23.5684C7.53667 23.7798 7.67911 23.9632 7.86295 24.0977C8.0468 24.2322 8.26468 24.3124 8.49185 24.3293C8.71902 24.3462 8.94638 24.2991 9.14809 24.1932L13.9233 21.6849C14.1008 21.5887 14.2995 21.5383 14.5013 21.5383C14.7032 21.5383 14.9019 21.5887 15.0794 21.6849" fill="#FF0083"/>
</svg>
