<svg width="28" height="28" viewBox="0 0 28 28" fill="none" xmlns="http://www.w3.org/2000/svg">
<path d="M10.4987 25.6654C11.143 25.6654 11.6654 25.143 11.6654 24.4987C11.6654 23.8544 11.143 23.332 10.4987 23.332C9.85437 23.332 9.33203 23.8544 9.33203 24.4987C9.33203 25.143 9.85437 25.6654 10.4987 25.6654Z" stroke="#4A4A4A" stroke-linecap="round" stroke-linejoin="round"/>
<path d="M23.3346 25.6654C23.979 25.6654 24.5013 25.143 24.5013 24.4987C24.5013 23.8544 23.979 23.332 23.3346 23.332C22.6903 23.332 22.168 23.8544 22.168 24.4987C22.168 25.143 22.6903 25.6654 23.3346 25.6654Z" stroke="#4A4A4A" stroke-linecap="round" stroke-linejoin="round"/>
<path d="M1.16797 1.16797H5.83464L8.9613 16.7896C9.06799 17.3268 9.36019 17.8093 9.78677 18.1527C10.2133 18.496 10.7471 18.6785 11.2946 18.668H22.6346C23.1822 18.6785 23.7159 18.496 24.1425 18.1527C24.5691 17.8093 24.8613 17.3268 24.968 16.7896L26.8346 7.0013H7.0013" stroke="#4A4A4A" stroke-linecap="round" stroke-linejoin="round"/>
</svg>
