<svg width="28" height="28" viewBox="0 0 28 28" fill="none" xmlns="http://www.w3.org/2000/svg">
<path d="M10.5007 25.6673C11.145 25.6673 11.6673 25.145 11.6673 24.5007C11.6673 23.8563 11.145 23.334 10.5007 23.334C9.85632 23.334 9.33398 23.8563 9.33398 24.5007C9.33398 25.145 9.85632 25.6673 10.5007 25.6673Z" stroke="#FF0083" stroke-linecap="round" stroke-linejoin="round"/>
<path d="M23.3327 25.6673C23.977 25.6673 24.4993 25.145 24.4993 24.5007C24.4993 23.8563 23.977 23.334 23.3327 23.334C22.6884 23.334 22.166 23.8563 22.166 24.5007C22.166 25.145 22.6884 25.6673 23.3327 25.6673Z" stroke="#FF0083" stroke-linecap="round" stroke-linejoin="round"/>
<path d="M1.16602 1.16602H5.83268L8.95935 16.7877C9.06603 17.3248 9.35824 17.8073 9.78482 18.1507C10.2114 18.4941 10.7452 18.6765 11.2927 18.666H22.6327C23.1802 18.6765 23.714 18.4941 24.1405 18.1507C24.5671 17.8073 24.8593 17.3248 24.966 16.7877L26.8327 6.99935H6.99935" stroke="#FF0083" stroke-linecap="round" stroke-linejoin="round"/>
</svg>
