<svg width="20" height="20" viewBox="0 0 20 20" fill="none" xmlns="http://www.w3.org/2000/svg">
<g clip-path="url(#clip0_1515_7026)">
<path d="M4.2853 9.99951V6.24236C4.29645 5.50384 4.45323 4.77477 4.74664 4.09694C5.04004 3.41911 5.46432 2.80583 5.99515 2.29225C6.52598 1.77867 7.15294 1.37488 7.84009 1.10402C8.52724 0.833162 9.26109 0.700553 9.99958 0.713793C10.7381 0.700553 11.4719 0.833162 12.1591 1.10402C12.8462 1.37488 13.4732 1.77867 14.004 2.29225C14.5348 2.80583 14.9591 3.41911 15.2525 4.09694C15.5459 4.77477 15.7027 5.50384 15.7139 6.24236V9.99951M12.8567 17.4995C13.6145 17.4995 14.3412 17.1985 14.877 16.6627C15.4128 16.1269 15.7139 15.4001 15.7139 14.6424V11.4281M12.8567 17.4995C12.8567 17.9731 12.6686 18.4273 12.3337 18.7622C11.9988 19.0971 11.5446 19.2852 11.071 19.2852H8.92815C8.45455 19.2852 8.00035 19.0971 7.66546 18.7622C7.33058 18.4273 7.14244 17.9731 7.14244 17.4995C7.14244 17.0259 7.33058 16.5717 7.66546 16.2368C8.00035 15.9019 8.45455 15.7138 8.92815 15.7138H11.071C11.5446 15.7138 11.9988 15.9019 12.3337 16.2368C12.6686 16.5717 12.8567 17.0259 12.8567 17.4995ZM2.14244 7.85665H3.57101C3.76045 7.85665 3.94213 7.9319 4.07609 8.06586C4.21004 8.19981 4.2853 8.3815 4.2853 8.57094V12.8566C4.2853 13.0461 4.21004 13.2278 4.07609 13.3617C3.94213 13.4957 3.76045 13.5709 3.57101 13.5709H2.14244C1.76356 13.5709 1.4002 13.4204 1.13229 13.1525C0.864377 12.8846 0.713867 12.5212 0.713867 12.1424V9.28522C0.713867 8.90634 0.864377 8.54298 1.13229 8.27507C1.4002 8.00716 1.76356 7.85665 2.14244 7.85665ZM17.8567 13.5709H16.4282C16.2387 13.5709 16.057 13.4957 15.9231 13.3617C15.7891 13.2278 15.7139 13.0461 15.7139 12.8566V8.57094C15.7139 8.3815 15.7891 8.19981 15.9231 8.06586C16.057 7.9319 16.2387 7.85665 16.4282 7.85665H17.8567C18.2356 7.85665 18.599 8.00716 18.8669 8.27507C19.1348 8.54298 19.2853 8.90634 19.2853 9.28522V12.1424C19.2853 12.5212 19.1348 12.8846 18.8669 13.1525C18.599 13.4204 18.2356 13.5709 17.8567 13.5709Z" stroke="#FF0083" stroke-width="1.67" stroke-linecap="round" stroke-linejoin="round"/>
</g>
<defs>
<clipPath id="clip0_1515_7026">
<rect width="20" height="20" fill="white"/>
</clipPath>
</defs>
</svg>
