<svg width="28" height="28" viewBox="0 0 28 28" fill="none" xmlns="http://www.w3.org/2000/svg">
<path d="M7 2.33203L3.5 6.9987V23.332C3.5 23.9509 3.74583 24.5444 4.18342 24.9819C4.621 25.4195 5.21449 25.6654 5.83333 25.6654H22.1667C22.7855 25.6654 23.379 25.4195 23.8166 24.9819C24.2542 24.5444 24.5 23.9509 24.5 23.332V6.9987L21 2.33203H7Z" stroke="#4A4A4A" stroke-linecap="round" stroke-linejoin="round"/>
<path d="M3.5 7H24.5" stroke="#4A4A4A" stroke-linecap="round" stroke-linejoin="round"/>
<path d="M18.6654 11.668C18.6654 12.9056 18.1737 14.0926 17.2985 14.9678C16.4234 15.843 15.2364 16.3346 13.9987 16.3346C12.761 16.3346 11.574 15.843 10.6989 14.9678C9.8237 14.0926 9.33203 12.9056 9.33203 11.668" stroke="#4A4A4A" stroke-linecap="round" stroke-linejoin="round"/>
</svg>
