<svg width="28" height="28" viewBox="0 0 28 28" fill="none" xmlns="http://www.w3.org/2000/svg">
<path d="M7 2.33398L3.5 7.00065V23.334C3.5 23.9528 3.74583 24.5463 4.18342 24.9839C4.621 25.4215 5.21449 25.6673 5.83333 25.6673H22.1667C22.7855 25.6673 23.379 25.4215 23.8166 24.9839C24.2542 24.5463 24.5 23.9528 24.5 23.334V7.00065L21 2.33398H7Z" stroke="#FF0083" stroke-linecap="round" stroke-linejoin="round"/>
<path d="M3.5 7H24.5" stroke="#FF0083" stroke-linecap="round" stroke-linejoin="round"/>
<path d="M18.6673 11.666C18.6673 12.9037 18.1757 14.0907 17.3005 14.9658C16.4253 15.841 15.2383 16.3327 14.0007 16.3327C12.763 16.3327 11.576 15.841 10.7008 14.9658C9.82565 14.0907 9.33398 12.9037 9.33398 11.666" stroke="#FF0083" stroke-linecap="round" stroke-linejoin="round"/>
</svg>
