<svg width="22" height="23" viewBox="0 0 22 23" fill="none" xmlns="http://www.w3.org/2000/svg">
<path fill-rule="evenodd" clip-rule="evenodd" d="M15.1123 3.85462L8.52683 1.07816C8.49289 1.06419 8.45495 1.06519 8.42101 1.08016C8.38706 1.09414 8.35911 1.1191 8.34513 1.15205L7.75508 2.5508C7.7411 2.58475 7.7421 2.62269 7.75708 2.65663C7.77105 2.69057 7.79601 2.71853 7.82896 2.73251L7.91282 2.76845L14.4145 5.51014C14.4484 5.52412 14.4864 5.52312 14.5203 5.50815C14.5542 5.49417 14.5822 5.46921 14.5962 5.43626L15.1862 4.03751C15.2002 4.00356 15.1992 3.96562 15.1842 3.93168C15.1703 3.89773 15.1453 3.86978 15.1123 3.8558L15.1123 3.85462ZM3.6359 14.2857L4.67921 14.726L6.35153 10.7592L5.30822 10.3189L3.6359 14.2857ZM19.705 20.5317C18.8064 21.4303 17.5664 21.9854 16.1958 21.9854C14.8251 21.9854 13.5839 21.4293 12.6865 20.5317C11.788 19.6332 11.2329 18.3932 11.2329 17.0225C11.2329 14.7771 13.1797 12.5717 14.7541 10.7895C15.1245 10.3692 15.4739 9.9748 15.7745 9.60141C15.7994 9.56946 15.8284 9.53951 15.8613 9.51255C16.091 9.32785 16.4274 9.36479 16.6121 9.59442C16.9136 9.96983 17.2651 10.3672 17.6385 10.7895C19.2129 12.5726 21.1597 14.7772 21.1597 17.0235C21.1597 18.3943 20.6036 19.6354 19.706 20.5328L19.705 20.5317ZM16.1958 20.9151C17.271 20.9151 18.2434 20.4798 18.9484 19.775C19.6533 19.0711 20.0886 18.0977 20.0886 17.0223C20.0886 15.1752 18.2925 13.1404 16.8388 11.4962C16.6141 11.2416 16.3965 10.995 16.1958 10.7614C15.9952 10.995 15.7775 11.2416 15.5529 11.4962C14.1002 13.1416 12.3031 15.1762 12.3031 17.0223C12.3031 18.0975 12.7384 19.07 13.4432 19.775C14.1481 20.4799 15.1204 20.9151 16.1958 20.9151ZM17.9599 19.1969C18.2964 18.8924 18.5699 18.519 18.7566 18.0966C18.9383 17.6883 19.0392 17.24 19.0392 16.7718C19.0392 16.4763 18.7996 16.2366 18.504 16.2366C18.2085 16.2366 17.9689 16.4762 17.9689 16.7718C17.9689 17.0943 17.902 17.3958 17.7832 17.6653C17.6574 17.9479 17.4737 18.1995 17.246 18.4061C17.0274 18.6038 17.0104 18.9413 17.2081 19.1589C17.4058 19.3776 17.7432 19.3945 17.9609 19.1969L17.9599 19.1969ZM15.7684 20.0435C15.8343 20.0435 15.7205 20.0425 15.8223 20.0405L15.8763 20.0395C16.1708 20.0305 16.4024 19.7839 16.3924 19.4894C16.3834 19.1949 16.1368 18.9633 15.8423 18.9733L15.8054 18.9742C15.7345 18.9752 15.8643 18.9723 15.7684 18.9723C15.4729 18.9723 15.2333 19.2119 15.2333 19.5074C15.2333 19.8029 15.4729 20.0426 15.7684 20.0426L15.7684 20.0435ZM12.4627 8.53106L7.59064 20.0875C7.57567 20.1144 7.56468 20.1424 7.5547 20.1713C7.23621 20.8962 6.65317 21.4313 5.96425 21.7118C5.27537 21.9924 4.48363 22.0163 3.74981 21.7198C3.72386 21.7058 3.6969 21.6949 3.66894 21.6859C2.94412 21.3674 2.40897 20.7843 2.12844 20.0954C1.8429 19.3936 1.82293 18.5849 2.13742 17.8401L3.22068 15.2691L4.7562 15.9161C5.02777 16.0299 5.34027 15.9031 5.45508 15.6315L7.54173 10.6826C7.65554 10.411 7.52875 10.0985 7.25718 9.98368L5.72266 9.33674L6.15297 8.31538C7.5497 7.45776 8.35741 7.82118 9.19114 8.19658C10.0987 8.60493 11.0312 9.02425 12.4629 8.53104L12.4627 8.53106ZM6.77276 6.84477L7.98979 3.95739L13.4241 6.24868L13.0827 7.05839C11.4223 8.02584 10.5109 7.61749 9.63018 7.22112C8.78355 6.84073 7.95892 6.46938 6.77276 6.84477ZM5.22725 7.76429C5.23224 7.75231 5.23723 7.73933 5.24222 7.72735L7.03931 3.46619C6.9195 3.34938 6.82665 3.20961 6.76476 3.05784C6.65593 2.79226 6.64296 2.48576 6.74779 2.19623C6.75777 2.15929 6.77275 2.12434 6.78972 2.09139L7.3608 0.73757C7.49059 0.430072 7.7322 0.204439 8.01774 0.0886068C8.30229 -0.0272053 8.63274 -0.0341955 8.93926 0.0955956L15.4798 2.85313C15.5157 2.86511 15.5506 2.88009 15.5826 2.89806C15.8601 3.03284 16.0648 3.26148 16.1736 3.52906C16.2825 3.79464 16.2954 4.10114 16.1906 4.39067C16.1806 4.42761 16.1657 4.46255 16.1487 4.4955L15.5776 5.84933C15.4478 6.15682 15.2062 6.38246 14.9207 6.49829C14.7689 6.56019 14.6052 6.59014 14.4384 6.58615L14.0131 7.59651C14.0041 7.62447 13.9921 7.65242 13.9782 7.67838L8.55281 20.5457C8.1225 21.5651 7.31681 22.3149 6.36433 22.7022C5.41286 23.0896 4.31265 23.1146 3.29319 22.6853H3.29219C2.27283 22.2549 1.52304 21.4493 1.13567 20.4968C0.748298 19.5453 0.723327 18.4451 1.15264 17.4256L4.53023 9.41448V9.41349L4.53123 9.41249L5.22712 7.76315L5.22725 7.76429Z" fill="white"/>
</svg>
